<?xml version="1.0" standalone="no"?>
<!DOCTYPE svg PUBLIC "-//W3C//DTD SVG 20010904//EN"
 "http://www.w3.org/TR/2001/REC-SVG-20010904/DTD/svg10.dtd">
<svg version="1.0" xmlns="http://www.w3.org/2000/svg"
 width="700.000000pt" height="700.000000pt" viewBox="0 0 700.000000 700.000000"
 preserveAspectRatio="xMidYMid meet">
<metadata>
Created by potrace 1.14, written by Peter Selinger 2001-2017
</metadata>
<g transform="translate(0.000000,700.000000) scale(0.100000,-0.100000)"
fill="#000000" stroke="none">
<path d="M915 5852 l-100 -3 0 -2129 0 -2130 82 -1 c107 0 319 0 381 0 l47 1
-2 745 c-1 410 0 745 2 745 2 0 31 -26 63 -57 33 -32 145 -139 248 -239 104
-100 234 -224 289 -277 55 -53 134 -128 175 -168 41 -40 172 -165 290 -279
118 -114 235 -226 260 -250 25 -23 86 -83 137 -132 l92 -90 133 0 c73 1 221 1
328 2 l195 0 -121 118 c-66 64 -214 207 -329 317 -114 110 -233 225 -265 255
-31 30 -118 114 -192 185 -227 219 -547 527 -668 644 l-115 111 40 37 c22 21
71 65 110 98 38 33 89 79 114 101 25 23 73 65 106 94 33 29 74 65 90 79 17 15
89 78 160 141 72 62 137 121 146 129 9 9 29 27 45 41 16 14 86 75 154 135 69
61 138 121 154 135 16 14 34 30 40 35 6 6 88 78 181 160 94 82 184 162 200
177 17 14 40 35 53 46 12 11 22 22 22 24 0 3 -143 5 -317 5 l-317 0 -120 -106
c-67 -58 -123 -108 -126 -111 -3 -3 -23 -20 -45 -39 -22 -19 -73 -64 -114
-100 -82 -72 -140 -124 -246 -216 -37 -33 -76 -67 -85 -75 -9 -8 -45 -40 -80
-70 -34 -30 -68 -60 -74 -66 -6 -5 -54 -47 -106 -93 -52 -46 -126 -111 -165
-146 -38 -34 -95 -84 -125 -110 -30 -26 -86 -75 -124 -109 -38 -34 -74 -64
-81 -68 -10 -6 -13 232 -13 1245 0 1042 -2 1252 -14 1254 -25 5 -293 8 -393 5z"/>
<path d="M4780 4715 c-232 -34 -402 -94 -547 -193 -189 -130 -297 -304 -337
-543 -11 -66 -7 -265 8 -339 45 -234 169 -398 386 -512 141 -74 260 -113 540
-178 357 -82 517 -129 628 -183 139 -68 217 -175 231 -320 20 -218 -85 -369
-319 -456 -116 -43 -215 -56 -420 -56 -126 0 -176 3 -310 20 -189 23 -487 122
-712 236 -32 16 -59 25 -59 21 -1 -4 -2 -120 -3 -259 l-1 -252 85 -27 c217
-67 444 -116 700 -149 103 -13 524 -14 580 -2 14 4 57 11 95 17 328 51 608
213 756 438 85 130 120 247 125 427 13 479 -223 739 -818 899 -51 14 -104 27
-118 30 -14 2 -83 18 -155 35 -71 16 -141 32 -155 35 -59 11 -241 67 -307 94
-219 89 -303 223 -271 430 31 196 204 325 493 367 94 13 378 13 490 0 214 -26
435 -87 593 -163 32 -16 65 -31 73 -34 13 -5 15 25 15 233 l0 238 -106 35
c-137 46 -208 62 -385 91 -157 25 -185 26 -440 30 -163 2 -280 -2 -335 -10z"/>
</g>
</svg>
